<svg xmlns="http://www.w3.org/2000/svg" viewBox="0 0 64 64" fill="none" role="img" aria-labelledby="title"><title id="title">Headless portfolio — raw sketch</title><defs><filter id="r"><feTurbulence type="fractalNoise" baseFrequency=".052" numOctaves="2" seed="47" result="n"/><feDisplacementMap in="SourceGraphic" in2="n" scale="1.25"/></filter></defs><g filter="url(#r)" stroke="#1A1A1A45" stroke-linecap="round" stroke-linejoin="round"><path stroke-width="1.2" d="m9 17 45-2-3 35-39 3-3-36Z"/><path stroke-width=".7" d="M7 14c15 2 32 0 49-1l-2 40c-14 3-29 3-44 2M10 23c14-2 28-1 43-2"/><path stroke-width="1.15" d="m17 31 7 5-8 7m18-14-7 18m11-6c5 2 9 1 12-2"/><path stroke-width="1" d="M14 15 12 7l6 5 4-8 5 7 7-7 1 10M40 8l4 3 5-4-2 6 4 3-7 1"/><path stroke-width=".8" d="m4 28 6 2-5 3 5 3-7 2M53 28l7 4-6 4m-43 23c12-3 24-2 36 0"/><path stroke-width=".6" d="M18 26c7-2 15-2 22-1M33 53l2 7m2-7-4 6M5 8l3 3m0-3-3 3M49 56l8-2-3 4 5 2"/></g></svg>
